<svg width="18" height="17" viewBox="0 0 18 17" fill="none" xmlns="http://www.w3.org/2000/svg">
<path fill-rule="evenodd" clip-rule="evenodd" d="M14.9134 0.0101929C14.5329 0.0101929 14.1839 0.0101929 13.9009 0.0483048C13.588 0.0908483 13.2584 0.190117 12.9868 0.464877C12.7152 0.739637 12.6159 1.07112 12.5737 1.38665C12.5359 1.67294 12.5359 2.02481 12.5359 2.4077V14.0097C12.5359 14.3934 12.5359 14.7453 12.5737 15.0307C12.6159 15.3462 12.7143 15.6786 12.9868 15.9525C13.2593 16.2264 13.588 16.3265 13.9009 16.3691C14.1848 16.4072 14.5337 16.4072 14.9134 16.4072H14.9926C15.3731 16.4072 15.7221 16.4072 16.0051 16.3691C16.318 16.3265 16.6476 16.2273 16.9192 15.9525C17.1908 15.6777 17.2901 15.3462 17.3323 15.0307C17.3701 14.7444 17.3701 14.3926 17.3701 14.0097V2.4077C17.3701 2.02392 17.3701 1.67205 17.3323 1.38665C17.2901 1.07112 17.1917 0.738751 16.9192 0.464877C16.6467 0.191003 16.318 0.0908483 16.0051 0.0483048C15.7212 0.0101929 15.3723 0.0101929 14.9926 0.0101929H14.9134ZM13.9202 1.40349L13.9185 1.40438L13.9176 1.40704L13.9132 1.4159C13.8964 1.46371 13.8855 1.51342 13.8807 1.56392C13.8561 1.75005 13.8543 2.01062 13.8543 2.44758V13.9698C13.8543 14.4067 13.8561 14.6673 13.8807 14.8535C13.8862 14.9071 13.8986 14.9599 13.9176 15.0103L13.9185 15.013L13.9211 15.0139L13.9237 15.0156L13.9299 15.0183C13.9492 15.0263 13.9914 15.0396 14.0767 15.0511C14.2613 15.0759 14.5197 15.0777 14.953 15.0777C15.3863 15.0777 15.6447 15.0759 15.8293 15.0511C15.8826 15.0456 15.9349 15.0331 15.9849 15.0139L15.9875 15.013L15.9884 15.0103L15.9928 15.0015C16.0096 14.9537 16.0205 14.9039 16.0253 14.8535C16.0499 14.6673 16.0517 14.4067 16.0517 13.9698V2.44758C16.0517 2.01062 16.0499 1.75005 16.0253 1.56392C16.0198 1.51023 16.0074 1.45749 15.9884 1.40704L15.9875 1.40438L15.9849 1.40349L15.9761 1.39906C15.9287 1.38212 15.8794 1.37111 15.8293 1.36627C15.6447 1.34145 15.3863 1.33968 14.953 1.33968C14.5197 1.33968 14.2613 1.34145 14.0767 1.36627C14.0234 1.3718 13.9703 1.38431 13.9202 1.40349ZM8.76075 2.66916H8.83985C9.22044 2.66916 9.56939 2.66916 9.85241 2.70728C10.1653 2.74982 10.4949 2.84909 10.7665 3.12385C11.0381 3.39861 11.1374 3.73009 11.1796 4.04562C11.2174 4.33191 11.2174 4.68378 11.2174 5.06667V14.0097C11.2174 14.3934 11.2174 14.7453 11.1796 15.0307C11.1374 15.3462 11.039 15.6786 10.7665 15.9525C10.4941 16.2264 10.1653 16.3265 9.85241 16.3691C9.56851 16.4072 9.21956 16.4072 8.83985 16.4072H8.76075C8.38104 16.4072 8.03121 16.4072 7.74819 16.3691C7.43528 16.3265 7.10567 16.2273 6.83407 15.9525C6.56248 15.6777 6.46315 15.3462 6.42096 15.0307C6.38317 14.7444 6.38317 14.3926 6.38317 14.0097V5.06667C6.38317 4.68289 6.38317 4.33102 6.42096 4.04562C6.46315 3.73009 6.5616 3.39772 6.83407 3.12385C7.10655 2.84997 7.43528 2.74982 7.74819 2.70728C8.03209 2.66916 8.38104 2.66916 8.76075 2.66916ZM7.76577 4.06335L7.7684 4.06246L7.76577 15.013L7.76489 15.0103L7.76049 15.0015C7.74369 14.9537 7.73277 14.9039 7.72797 14.8535C7.70336 14.6673 7.7016 14.4067 7.7016 13.9698V5.10655C7.7016 4.6696 7.70336 4.40902 7.72797 4.22289C7.73346 4.1692 7.74587 4.11646 7.76489 4.06601L7.76577 4.06335ZM7.76577 15.013L7.7684 4.06246L7.77104 4.06069L7.77719 4.05803C7.82461 4.04109 7.87391 4.03008 7.92398 4.02524C8.10856 4.00042 8.36697 3.99865 8.8003 3.99865C9.23363 3.99865 9.49204 4.00042 9.67662 4.02524C9.72986 4.03077 9.78216 4.04328 9.8322 4.06246L9.83483 4.06335L9.83571 4.06601L9.84011 4.07487C9.84802 4.09437 9.8612 4.13691 9.87263 4.22289C9.89724 4.40902 9.899 4.6696 9.899 5.10655V13.9698C9.899 14.4067 9.89724 14.6673 9.87263 14.8535C9.86714 14.9071 9.85473 14.9599 9.83571 15.0103L9.83483 15.013L9.8322 15.0139L9.82341 15.0183C9.77599 15.0352 9.72669 15.0463 9.67662 15.0511C9.49204 15.0759 9.23363 15.0777 8.8003 15.0777C8.36697 15.0777 8.10856 15.0759 7.92398 15.0511C7.87074 15.0456 7.81844 15.0331 7.7684 15.0139L7.76577 15.013ZM2.60805 6.21446C2.22746 6.21446 1.87851 6.21446 1.59549 6.25257C1.28258 6.29511 0.952971 6.39438 0.681374 6.66914C0.409776 6.9439 0.310454 7.27539 0.268264 7.59092C0.230469 7.8772 0.230469 8.22907 0.230469 8.61196V14.0097C0.230469 14.3934 0.230469 14.7453 0.268264 15.0307C0.310454 15.3462 0.408897 15.6786 0.681374 15.9525C0.95385 16.2264 1.28258 16.3265 1.59549 16.3691C1.87939 16.4072 2.22834 16.4072 2.60805 16.4072H2.68715C3.06774 16.4072 3.41669 16.4072 3.69971 16.3691C4.01262 16.3265 4.34223 16.2273 4.61383 15.9525C4.88543 15.6777 4.98475 15.3462 5.02694 15.0307C5.06473 14.7444 5.06473 14.3926 5.06473 14.0097V8.61196C5.06473 8.22818 5.06473 7.87631 5.02694 7.59092C4.98475 7.27539 4.8863 6.94301 4.61383 6.66914C4.34135 6.39527 4.01262 6.29511 3.69971 6.25257C3.41581 6.21446 3.06686 6.21446 2.68715 6.21446H2.60805ZM1.61483 7.60776L1.61307 7.60864L1.61219 7.6113L1.60779 7.62017C1.59099 7.66798 1.58007 7.71769 1.57527 7.76818C1.55066 7.95431 1.5489 8.21489 1.5489 8.65185V13.9698C1.5489 14.4067 1.55066 14.6673 1.57527 14.8535C1.58076 14.9071 1.59317 14.9599 1.61219 15.0103V15.0121L1.61571 15.0139L1.62449 15.0183C1.64383 15.0263 1.68602 15.0396 1.77128 15.0511C1.95586 15.0759 2.21427 15.0777 2.6476 15.0777C3.08093 15.0777 3.33934 15.0759 3.52392 15.0511C3.57716 15.0456 3.62946 15.0331 3.6795 15.0139L3.68213 15.013L3.68301 15.0103L3.68477 15.0068L3.68741 15.0015C3.70421 14.9537 3.71513 14.9039 3.71993 14.8535C3.74454 14.6673 3.7463 14.4067 3.7463 13.9698V8.65185C3.7463 8.21489 3.74454 7.95431 3.71993 7.76818C3.71444 7.71449 3.70203 7.66175 3.68301 7.6113L3.68213 7.60864L3.6795 7.60776L3.67071 7.60333C3.62329 7.58639 3.574 7.57537 3.52392 7.57053C3.33934 7.54571 3.08093 7.54394 2.6476 7.54394C2.21427 7.54394 1.95586 7.54571 1.77128 7.57053C1.71804 7.57606 1.66486 7.58858 1.61483 7.60776Z" fill="black"/>
</svg>
