<svg width="14" height="18" viewBox="0 0 14 18" fill="none" xmlns="http://www.w3.org/2000/svg">
<path d="M2.20801 0.666626C1.17426 0.666626 0.333008 1.50788 0.333008 2.54163V15.4583C0.333008 16.492 1.17426 17.3333 2.20801 17.3333H11.7913C12.8251 17.3333 13.6663 16.492 13.6663 15.4583V7.33329H8.87467C7.84092 7.33329 6.99967 6.49204 6.99967 5.45829V0.666626H2.20801ZM8.24967 1.03284V5.45829C8.24967 5.80288 8.53009 6.08329 8.87467 6.08329H13.3001L8.24967 1.03284ZM6.99967 8.16662C7.15957 8.16662 7.31949 8.22765 7.44157 8.34973L9.10824 10.0164C9.3524 10.2601 9.3524 10.6564 9.10824 10.9002C8.98657 11.0227 8.82634 11.0833 8.66634 11.0833C8.50634 11.0833 8.34653 11.0223 8.22445 10.9002L7.62467 10.3004V12.5416C7.62467 12.887 7.34509 13.1666 6.99967 13.1666C6.65426 13.1666 6.37467 12.887 6.37467 12.5416V10.3004L5.7749 10.9002C5.53074 11.1444 5.13528 11.1444 4.89111 10.9002C4.64695 10.6564 4.64736 10.2606 4.89111 10.0164L6.55778 8.34973C6.67986 8.22765 6.83978 8.16662 6.99967 8.16662ZM4.29134 14H9.70801C10.0534 14 10.333 14.2795 10.333 14.625C10.333 14.9704 10.0534 15.25 9.70801 15.25H4.29134C3.94592 15.25 3.66634 14.9704 3.66634 14.625C3.66634 14.2795 3.94592 14 4.29134 14Z" fill="#636363"/>
</svg>
