<svg width="19" height="20" viewBox="0 0 19 20" fill="none" xmlns="http://www.w3.org/2000/svg">
<path d="M13.0334 16.7562C13.0334 15.4329 11.3233 14.3604 9.21461 14.3604C7.10588 14.3604 5.39584 15.4329 5.39584 16.7562M16.0884 14.3604C16.0884 13.3781 15.1459 12.534 13.7971 12.1643M2.34082 14.3604C2.34082 13.3781 3.28329 12.534 4.63208 12.1643M13.7971 8.95873C14.0234 8.74957 14.2079 8.4957 14.34 8.21172C14.4721 7.92774 14.5492 7.61926 14.5669 7.30401C14.5846 6.98876 14.5425 6.67297 14.443 6.37479C14.3435 6.07662 14.1887 5.80195 13.9873 5.56657C13.786 5.3312 13.5421 5.13977 13.2698 5.00329C12.9974 4.86682 12.7019 4.78799 12.4004 4.77134C12.0988 4.75469 11.797 4.80055 11.5124 4.90628C11.2278 5.01201 10.966 5.17552 10.7421 5.38741M4.63208 8.95873C4.18322 8.53399 3.91336 7.94078 3.88144 7.30867C3.84952 6.67656 4.05814 6.05693 4.46173 5.58514C4.86532 5.11334 5.43108 4.82773 6.03541 4.79068C6.63975 4.75363 7.23355 4.96816 7.6871 5.38741M9.21461 11.9646C8.91371 11.9646 8.61577 11.9027 8.33778 11.7823C8.05979 11.6619 7.8072 11.4854 7.59444 11.2629C7.38168 11.0405 7.2129 10.7763 7.09776 10.4857C6.98261 10.195 6.92334 9.88347 6.92334 9.56885C6.92334 9.25423 6.98261 8.9427 7.09776 8.65203C7.2129 8.36136 7.38168 8.09725 7.59444 7.87478C7.8072 7.65231 8.05979 7.47584 8.33778 7.35544C8.61577 7.23504 8.91371 7.17307 9.21461 7.17307C9.82229 7.17307 10.4051 7.42548 10.8348 7.87478C11.2645 8.32408 11.5059 8.93345 11.5059 9.56885C11.5059 10.2043 11.2645 10.8136 10.8348 11.2629C10.4051 11.7122 9.82229 11.9646 9.21461 11.9646Z" stroke="black" stroke-width="1.56196" stroke-linecap="round" stroke-linejoin="round"/>
</svg>
